<svg xmlns="http://www.w3.org/2000/svg" viewBox="0 0 1770.82 951.01"><defs><style>.cls-1{isolation:isolate;}.cls-2{fill:#262b51;}.cls-3{fill:#191d35;}.cls-4{fill:#181b30;}.cls-5{fill:#353d68;}.cls-6{fill:#7989bc;}.cls-7{fill:#3c9989;}.cls-8{fill:#090a11;}.cls-9{fill:#232944;}.cls-10{fill:#4f3c25;}.cls-11{fill:#7c7c7c;}.cls-12{fill:#121423;}.cls-13{fill:#c6c6c6;}.cls-14{fill:#110d09;}.cls-15{fill:#595958;}.cls-16{fill:#354066;}.cls-17{fill:#131623;}.cls-18{fill:#141923;opacity:0.6;}.cls-19{fill:#45528c;}.cls-20{fill:#51629e;}.cls-21{fill:#7e8dbc;}.cls-22{fill:#193326;}.cls-23{fill:#0f1e16;}.cls-24{opacity:0.75;mix-blend-mode:multiply;}.cls-25{fill:#293a00;}.cls-26{fill:#fff;}</style></defs><g class="cls-1"><g id="Layer_2" data-name="Layer 2"><g id="Layer_18" data-name="Layer 18"><polygon class="cls-2" points="519.78 9.4 1399.12 9.41 1399.13 7.08 1401.47 7.07 1401.46 4.74 1403.8 4.73 1403.8 2.4 1406.13 2.39 1406.14 0.06 1747.39 0 1747.38 2.32 1749.73 2.34 1749.73 4.68 1752.06 4.67 1752.07 6.99 1754.38 7.01 1754.4 100.47 1752.08 100.47 1752.09 102.81 1749.76 102.81 1749.73 105.16 1747.39 105.14 1747.38 107.48 1745.06 107.49 1745.05 109.82 1742.72 109.83 1742.71 112.16 1740.4 112.17 1740.4 254.67 1742.71 254.69 1742.73 257.02 1745.05 257.02 1745.07 259.36 1747.39 259.35 1747.39 261.7 1749.74 261.69 1749.73 264.01 1752.08 264.01 1752.05 266.36 1754.41 266.36 1754.4 268.69 1756.73 268.69 1756.74 271.04 1759.09 271.01 1759.12 273.33 1761.46 273.33 1761.46 275.67 1763.78 275.67 1763.78 277.99 1766.1 277.99 1766.1 280.31 1768.43 280.36 1768.44 282.68 1770.76 282.71 1770.63 301.49 1752.03 301.49 1751.96 598.08 1770.74 598 1770.74 619.18 1768.42 619.18 1768.42 621.49 1766.06 621.52 1766.06 623.86 1763.71 623.86 1763.74 626.21 1761.4 626.21 1761.39 628.56 1759.07 628.53 1759.05 630.87 1756.74 630.87 1756.74 633.21 1754.41 633.21 1754.4 635.54 1752.05 635.55 1752.07 637.87 1749.7 637.89 1749.72 640.21 1747.38 640.21 1747.4 642.53 1745.06 642.55 1745.04 644.88 1742.72 644.9 1742.7 647.24 1740.4 647.24 1740.38 850.49 1742.72 850.5 1742.72 852.83 1745.05 852.83 1745.06 855.16 1747.39 855.17 1747.39 857.49 1749.73 857.5 1749.74 859.84 1752.09 859.84 1752.09 862.14 1754.41 862.17 1754.44 943.96 1752.04 943.96 1752.07 946.25 1749.74 946.31 1749.72 948.65 1747.45 948.66 1747.45 951.01 1406.25 950.97 1406.24 948.62 1403.93 948.64 1403.91 946.3 1401.57 946.28 1401.58 943.97 1399.22 943.97 1399.19 941.67 519.78 941.93 519.78 918.49 1232.41 917.01 1232.41 32.99 519.78 33.29 519.78 9.4"/><polygon class="cls-3" points="456.42 32.75 1690.64 32.72 1699.48 32.73 1699.48 35.03 1708.17 35.03 1708.22 37.38 1717.01 37.41 1716.91 39.72 1716.75 380.31 1716.68 531.46 1716.49 918.06 456.42 918.06 456.42 32.75"/><polyline class="cls-4" points="1749.71 640.31 1740.36 640.31 1740.42 855.2 1749.72 855.2 1749.71 490.17"/><polyline class="cls-4" points="1749.71 107.36 1740.29 107.36 1740.36 257.69 1749.71 257.69"/><rect class="cls-5" x="1747.39" y="642.53" width="2.33" height="215.05"/><rect class="cls-6" x="1747.39" y="745.35" width="2.33" height="4.66"/><rect class="cls-7" x="1747.39" y="740.67" width="2.33" height="4.67"/><rect class="cls-6" x="1747.39" y="726.65" width="2.33" height="4.66"/><rect class="cls-7" x="1747.39" y="721.97" width="2.33" height="4.67"/><rect class="cls-8" x="1740.36" y="647.26" width="2.33" height="203.22"/><path class="cls-8" d="M1747.4,642.51v2.38h-2.35v2.31h-2.34v-4.66S1747.41,642.52,1747.4,642.51Z"/><path class="cls-8" d="M1742.7,850.48h2.37v2.35h2.31v2.34h-4.66S1742.71,850.48,1742.7,850.48Z"/><path class="cls-8" d="M1749.72,640.21v2.32h-2.32v-2.32Z"/><path class="cls-8" d="M1749.69,855.17v2.32h-2.32v-2.32Z"/><rect class="cls-5" x="1747.4" y="100.47" width="2.33" height="163.65"/><rect class="cls-7" x="1747.39" y="236" width="2.33" height="4.67"/><rect class="cls-6" x="1747.39" y="221.97" width="2.33" height="4.66"/><rect class="cls-7" x="1747.39" y="217.3" width="2.33" height="4.67"/><rect class="cls-8" x="1740.38" y="107.38" width="2.33" height="150.81"/><path class="cls-8" d="M1742.71,254.68h2.37V257h2.32v2.34h-4.67S1742.72,254.68,1742.71,254.68Z"/><path class="cls-8" d="M1749.7,259.37v2.32h-2.32v-2.32Z"/><path class="cls-8" d="M1742.7,112.18h2.37v-2.35h2.31v-2.34h-4.66S1742.71,112.19,1742.7,112.18Z"/><path class="cls-8" d="M1749.69,107.49v-2.32h-2.32v2.32S1749.68,107.5,1749.69,107.49Z"/><rect class="cls-9" x="1751.98" y="301.49" width="16.43" height="9.29" transform="translate(3520.38 612.27) rotate(-180)"/><rect class="cls-10" x="1751.98" y="310.76" width="14.07" height="277.78"/><rect class="cls-11" x="1751.98" y="310.76" width="14.07" height="277.78"/><rect class="cls-12" x="1751.98" y="588.55" width="14.17" height="9.48" transform="translate(3518.12 1186.59) rotate(180)"/><rect class="cls-10" x="1759.01" y="310.76" width="2.39" height="277.77"/><rect class="cls-13" x="1759.01" y="310.76" width="2.39" height="277.77"/><rect class="cls-10" x="1751.93" y="310.76" width="2.39" height="277.77"/><rect class="cls-14" x="1751.93" y="310.76" width="2.39" height="277.77"/><rect class="cls-10" x="1754.35" y="310.76" width="2.39" height="277.77"/><rect class="cls-15" x="1754.35" y="310.76" width="2.39" height="277.77"/><rect class="cls-16" x="1759.02" y="301.47" width="2.37" height="9.28" transform="translate(3520.41 612.22) rotate(-180)"/><rect class="cls-17" x="1754.32" y="301.47" width="2.37" height="9.29" transform="translate(3511 612.23) rotate(-180)"/><rect x="1752.04" y="301.49" width="2.37" height="9.27" transform="translate(3506.45 612.25) rotate(-180)"/><rect class="cls-18" x="1759.02" y="294.49" width="2.37" height="16.4" transform="translate(2062.89 -1457.51) rotate(90)"/><rect class="cls-9" x="1751.98" y="588.58" width="16.46" height="9.48" transform="translate(3520.41 1186.64) rotate(-180)"/><rect class="cls-16" x="1759.02" y="588.6" width="2.37" height="9.48" transform="translate(3520.41 1186.68) rotate(180)"/><rect class="cls-17" x="1754.32" y="588.6" width="2.37" height="9.48" transform="translate(3511 1186.68) rotate(180)"/><rect x="1751.95" y="588.58" width="2.37" height="9.48" transform="translate(3506.26 1186.64) rotate(180)"/><rect class="cls-18" x="1757.73" y="580.33" width="2.37" height="14.04" transform="translate(2346.27 -1171.57) rotate(90)"/><rect class="cls-18" x="1757.83" y="304.9" width="2.37" height="14.03" transform="translate(2070.93 -1447.11) rotate(90)"/><path class="cls-19" d="M1766.09,299l0-16.38h-2.33v-2.35l-2.32,0V278h-2.39l0-2.3h-2.34v-2.33h-2.34V271h-2.32v-2.33h-2.34v-2.32h-2.33V264h-2.33V261.7h-2.31l0-2.32h-2.32V254.7h2.32V257h2.34v2.31l2.32,0v2.34h2.36l0,2.31h2.34v2.33l2.34,0,0,2.31h2.35V271h2.35v2.29h2.42v2.34h2.33V278h2.33l0,2.34h2.37v2.33h2.31l0,16.38v2.34h-21V299Z"/><path class="cls-19" d="M1766.05,600.49v18.7h-2.33v2.35h-2.32v2.34l-2.39,0,0,2.3h-2.33v2.34h-2.33v2.34H1752v2.34h-2.34v2.32l-2.33,0v2.33H1745v2.33h-2.31l0,2.33h-2.32v4.66h2.32v-2.35H1745v-2.31h2.32l0-2.35h2.35l0-2.31H1752v-2.33l2.34,0,0-2.3h2.35v-2.33H1759v-2.3h2.42v-2.34h2.33v-2.33h2.33l0-2.34h2.37v-2.33h2.31l0-16.38v-4.76l-18.64.1V301.41h-2.33V600.49Z"/><polygon class="cls-19" points="1749.71 100.47 1747.38 100.47 1747.4 102.81 1745.08 102.8 1745.06 105.14 1742.68 105.12 1742.65 107.43 1740.32 107.43 1740.31 109.76 1737.98 109.77 1737.98 257.01 1740.32 257 1740.32 112.12 1742.67 112.11 1742.67 109.81 1745.09 109.81 1745.09 107.47 1747.42 107.47 1747.42 105.15 1749.75 105.15 1749.72 102.81 1752.09 102.81 1752.09 100.47 1754.4 100.47 1754.36 14 1754.43 6.99 1752.05 7.04 1752.03 4.63 1749.69 4.66 1749.73 2.32 1747.39 2.33 1747.38 0 1409.76 0 1409.75 2.35 1745.05 2.34 1745.06 4.69 1747.39 4.68 1747.4 6.99 1749.77 7.01 1749.71 100.47"/><polygon class="cls-19" points="1749.68 862.16 1747.35 862.16 1747.37 859.82 1745.05 859.83 1745.03 857.49 1742.65 857.51 1742.63 855.2 1740.29 855.2 1740.28 852.87 1737.95 852.86 1737.95 644.89 1740.29 644.9 1740.29 850.51 1742.64 850.52 1742.64 852.82 1745.06 852.82 1745.06 855.16 1747.39 855.16 1747.39 857.48 1749.72 857.48 1749.7 859.82 1752.06 859.82 1752.06 862.16 1754.37 862.16 1754.33 936.95 1754.41 943.96 1752.02 943.91 1752 946.32 1749.66 946.29 1749.7 948.63 1747.37 948.62 1747.35 950.95 1409.73 950.95 1409.72 948.6 1745.02 948.61 1745.03 946.26 1747.36 946.27 1747.37 943.95 1749.74 943.94 1749.68 862.16"/><polygon class="cls-19" points="1399.24 941.63 1232.41 941.63 1232.41 939.27 1401.56 939.29 1401.59 941.61 1403.91 941.62 1403.92 943.93 1406.26 943.95 1406.27 946.3 1408.59 946.29 1408.59 948.63 1410.93 948.63 1410.93 950.97 1406.25 950.96 1406.25 948.63 1403.92 948.64 1403.91 946.29 1401.56 946.28 1401.58 943.97 1399.23 943.97 1399.24 941.63"/><polygon class="cls-19" points="1232.41 11.72 1232.41 9.4 1399.15 9.4 1399.15 7.05 1401.48 7.05 1401.47 4.71 1403.82 4.7 1403.83 2.36 1406.14 2.38 1406.14 0.03 1408.47 0.04 1410.83 0.04 1410.82 2.36 1408.5 2.38 1408.48 4.71 1406.18 4.72 1406.16 7.05 1403.81 7.07 1403.81 9.39 1401.47 9.39 1401.48 11.72 1232.41 11.72"/><polygon class="cls-19" points="1232.41 30.39 1714.67 30.4 1714.68 32.72 1717.01 32.73 1717.01 35.05 1719.35 35.04 1719.38 37.38 1719.38 509.34 1716.98 509.34 1716.98 37.38 1714.68 37.39 1714.68 35.06 1712.36 35.06 1712.34 32.72 1232.41 32.72 1232.41 30.39"/><polygon class="cls-19" points="1232.41 918.23 1712.34 918.23 1712.36 915.9 1714.68 915.9 1714.68 913.57 1716.98 913.58 1716.98 441.61 1719.38 441.61 1719.38 913.58 1719.35 915.91 1717.01 915.91 1717.01 918.23 1714.68 918.23 1714.67 920.56 1232.41 920.57 1232.41 918.23"/><rect class="cls-12" x="1733.37" y="341.16" width="2.33" height="35.02" transform="translate(2093.21 -1375.86) rotate(90)"/><rect class="cls-20" x="1733.38" y="338.83" width="2.33" height="35.02" transform="translate(1378.21 2090.89) rotate(-90)"/><rect class="cls-21" x="1749.72" y="355.17" width="2.32" height="2.29" transform="translate(3501.76 712.64) rotate(-180)"/><rect class="cls-21" x="1717.01" y="355.17" width="2.32" height="2.29" transform="translate(3436.34 712.64) rotate(-180)"/><rect class="cls-12" x="1733.37" y="527.13" width="2.33" height="35.02" transform="translate(1189.89 2279.18) rotate(-90)"/><rect class="cls-20" x="1733.35" y="529.47" width="2.33" height="35.02" transform="translate(2281.49 -1187.54) rotate(90)"/><rect class="cls-21" x="1717.02" y="545.85" width="2.32" height="2.29"/><rect class="cls-21" x="1749.73" y="545.85" width="2.32" height="2.29"/><rect class="cls-12" x="1727.53" y="669.66" width="2.33" height="23.34" transform="translate(2410.02 -1047.36) rotate(90)"/><rect class="cls-20" x="1727.54" y="667.33" width="2.33" height="23.33" transform="translate(1049.71 2407.7) rotate(-90)"/><rect class="cls-21" x="1738.04" y="677.83" width="2.32" height="2.29" transform="translate(3478.4 1357.95) rotate(-180)"/><rect class="cls-21" x="1717.01" y="677.83" width="2.32" height="2.29" transform="translate(3436.34 1357.95) rotate(-180)"/><rect class="cls-12" x="1727.53" y="797.83" width="2.33" height="23.34" transform="translate(919.2 2538.19) rotate(-90)"/><rect class="cls-20" x="1727.51" y="800.16" width="2.33" height="23.33" transform="translate(2540.51 -916.84) rotate(90)"/><rect class="cls-21" x="1717.02" y="810.7" width="2.32" height="2.29"/><rect class="cls-21" x="1738.05" y="810.7" width="2.32" height="2.29"/><rect class="cls-12" x="1727.53" y="107.73" width="2.33" height="23.34" transform="translate(1848.09 -1609.29) rotate(90)"/><rect class="cls-20" x="1727.29" y="105.67" width="2.27" height="22.78" transform="translate(1611.37 1845.49) rotate(-90)"/><rect class="cls-21" x="1738.04" y="115.9" width="2.32" height="2.29" transform="translate(3478.4 234.09) rotate(-180)"/><rect class="cls-21" x="1717.01" y="115.92" width="2.27" height="2.24" transform="translate(3436.28 234.09) rotate(-180)"/><rect class="cls-12" x="1727.53" y="212.53" width="2.33" height="23.34" transform="translate(1504.49 1952.89) rotate(-90)"/><rect class="cls-20" x="1727.51" y="214.87" width="2.33" height="23.33" transform="translate(1955.21 -1502.14) rotate(90)"/><rect class="cls-21" x="1717.02" y="225.41" width="2.32" height="2.29"/><rect class="cls-21" x="1738.05" y="225.41" width="2.32" height="2.29"/><polygon class="cls-2" points="538.41 9.4 371.7 9.41 371.69 7.08 369.35 7.07 369.36 4.74 367.02 4.73 367.02 2.4 364.69 2.39 364.68 0.06 23.43 0 23.43 2.32 21.09 2.34 21.09 4.68 18.76 4.67 18.75 6.99 16.43 7.01 16.42 100.47 18.74 100.47 18.73 102.81 21.06 102.81 21.09 105.16 23.43 105.14 23.43 107.48 25.76 107.49 25.77 109.82 28.1 109.83 28.1 112.16 30.42 112.17 30.42 254.67 28.11 254.69 28.09 257.02 25.77 257.02 25.75 259.36 23.42 259.35 23.42 261.7 21.08 261.69 21.08 264.01 18.74 264.01 18.77 266.36 16.41 266.36 16.42 268.69 14.09 268.69 14.08 271.04 11.73 271.01 11.7 273.33 9.36 273.33 9.36 275.67 7.04 275.67 7.04 277.99 4.72 277.99 4.72 280.31 2.39 280.36 2.38 282.68 0.06 282.71 0.19 301.49 18.79 301.49 18.86 598.08 0.08 598 0.08 619.18 2.39 619.18 2.39 621.49 4.76 621.52 4.76 623.86 7.11 623.86 7.08 626.21 9.42 626.21 9.43 628.56 11.75 628.53 11.77 630.87 14.08 630.87 14.08 633.21 16.41 633.21 16.42 635.54 18.77 635.55 18.75 637.87 21.12 637.89 21.09 640.21 23.44 640.21 23.41 642.53 25.76 642.55 25.78 644.88 28.1 644.9 28.12 647.24 30.42 647.24 30.43 850.49 28.1 850.5 28.1 852.83 25.77 852.83 25.76 855.16 23.43 855.17 23.43 857.49 21.09 857.5 21.08 859.84 18.73 859.84 18.73 862.14 16.41 862.17 16.38 943.96 18.78 943.96 18.75 946.25 21.08 946.31 21.09 948.65 23.37 948.66 23.37 951.01 364.56 950.97 364.58 948.62 366.89 948.64 366.91 946.3 369.25 946.28 369.24 943.97 371.6 943.97 371.63 941.67 538.41 941.93 538.41 9.4"/><polygon class="cls-3" points="538.41 32.75 63.95 32.72 60.55 32.73 60.55 35.03 57.21 35.03 57.19 37.38 53.81 37.41 53.85 39.72 53.91 380.31 53.94 531.45 54.01 918.06 538.41 918.06 538.41 32.75"/><polygon class="cls-22" points="847.09 729.22 94.84 729.85 94.8 74.23 847.19 74.11 847.09 729.22"/><polygon class="cls-23" points="837.8 701.41 837.8 83.43 837.8 81.09 835.44 81.09 835.46 78.75 833.14 78.75 833.14 76.43 830.8 76.43 106.44 76.43 106.46 78.75 830.77 78.76 830.75 81.06 833.11 81.09 833.13 83.44 835.45 83.42 835.43 85.77 835.47 701.4 837.8 701.41"/><polygon class="cls-23" points="101.77 728.32 101.76 83.43 101.76 81.09 104.13 81.09 104.1 78.75 106.43 78.75 106.43 76.43 108.76 76.43 842.48 76.43 842.45 78.75 108.79 78.76 108.81 81.06 106.45 81.09 106.44 83.44 104.12 83.42 104.13 85.77 104.09 728.32 101.77 728.32"/><polygon class="cls-11" points="847.17 701.45 847.17 78.79 844.84 78.79 844.83 76.46 842.47 76.46 842.5 74.12 840.17 74.12 840.17 71.79 837.84 71.76 837.84 69.45 837.84 69.45 101.78 69.46 101.81 76.46 835.47 76.46 835.48 78.8 837.81 78.79 837.79 81.14 840.12 81.13 840.17 701.44 847.17 701.45"/><polygon class="cls-11" points="92.56 728.32 92.56 78.79 94.89 78.79 94.89 76.46 97.25 76.46 97.23 74.12 99.5 74.12 99.5 71.78 101.89 71.76 101.89 69.45 101.89 69.45 836.77 69.46 836.75 76.46 104.25 76.46 104.24 78.8 101.92 78.79 101.93 81.14 99.6 81.13 99.55 728.31 92.56 728.32"/><polygon class="cls-13" points="92.48 102.15 92.48 74.12 94.81 74.12 94.82 71.78 97.18 71.78 97.16 69.44 99.48 69.44 99.48 67.12 101.81 67.12 837.87 67.12 837.84 69.45 101.84 69.45 101.86 71.76 99.51 71.79 99.49 74.13 97.17 74.11 97.18 76.46 94.86 76.46 94.81 728.31 92.48 728.31 92.48 102.15"/><polygon class="cls-14" points="99.51 728.33 99.51 81.14 101.84 81.14 101.84 78.81 104.21 78.81 104.18 76.47 106.51 76.47 106.51 74.14 108.84 74.14 833.21 74.15 833.19 76.47 108.87 76.48 108.89 78.78 106.53 78.81 106.52 81.15 104.2 81.14 104.21 83.49 101.89 83.48 101.83 728.33 99.51 728.33"/><polygon class="cls-14" points="840.12 702.63 840.12 81.14 837.79 81.14 837.79 78.81 835.42 78.81 835.45 76.47 833.12 76.47 833.12 74.14 830.79 74.14 106.42 74.15 106.44 76.47 830.76 76.48 830.74 78.78 833.1 78.81 833.11 81.15 835.43 81.14 835.42 83.49 837.75 83.48 837.8 702.63 840.12 702.63"/><polygon class="cls-23" points="101.89 724 101.89 719.3 101.89 721.64 104.25 721.64 104.23 723.98 106.55 723.98 106.55 726.3 108.89 726.3 833.25 726.3 833.23 723.98 108.92 723.97 108.94 721.67 106.58 721.64 106.56 719.29 104.24 719.31 104.26 716.96 104.22 724.01 101.89 724"/><polygon class="cls-23" points="837.88 699.23 837.88 719.11 837.88 721.45 835.52 721.45 835.54 723.78 833.22 723.78 833.22 726.11 830.88 726.11 97.17 726.11 97.19 723.78 830.86 723.78 830.84 721.47 833.19 721.44 833.21 719.1 835.53 719.12 835.51 716.77 835.56 699.24 837.88 699.23"/><polygon class="cls-11" points="92.52 723.97 92.52 723.94 94.85 723.94 94.86 726.27 97.22 726.27 97.19 728.61 99.52 728.61 99.52 730.94 101.85 730.97 101.85 733.27 101.85 733.28 837.9 733.27 837.88 726.27 104.22 726.27 104.2 723.93 101.88 723.94 101.9 721.6 99.57 721.6 99.52 723.97 92.52 723.97"/><polygon class="cls-11" points="847.13 701.41 847.13 723.94 844.8 723.94 844.8 726.27 842.44 726.27 842.46 728.61 840.19 728.61 840.19 730.95 837.8 730.97 837.8 733.27 837.8 733.28 102.92 733.27 102.94 726.27 835.44 726.27 835.45 723.93 837.77 723.94 837.76 721.6 840.09 721.6 840.13 701.41 847.13 701.41"/><polygon class="cls-13" points="847.21 715.77 847.21 728.61 844.88 728.61 844.87 730.95 842.51 730.95 842.53 733.28 840.21 733.28 840.21 735.61 837.88 735.61 101.82 735.61 101.85 733.28 837.85 733.28 837.83 730.97 840.18 730.94 840.2 728.6 842.52 728.62 842.5 726.27 844.83 726.27 844.88 704.11 847.21 704.11 847.21 715.77"/><polygon class="cls-14" points="840.18 701.75 840.18 721.59 837.85 721.59 837.85 723.92 835.48 723.92 835.51 726.26 833.18 726.26 833.18 728.59 830.85 728.59 106.48 728.58 106.5 726.26 830.82 726.25 830.8 723.95 833.15 723.92 833.17 721.58 835.49 721.59 835.48 719.24 837.8 719.25 837.86 701.75 840.18 701.75"/><polygon class="cls-13" points="92.48 723.97 92.48 728.61 94.81 728.61 94.81 730.95 97.18 730.95 97.15 733.28 99.48 733.28 99.48 735.61 101.81 735.61 837.86 735.61 837.84 733.28 101.84 733.28 101.86 730.97 99.5 730.94 99.49 728.6 97.17 728.62 97.18 726.27 94.86 726.27 94.81 723.97 92.48 723.97"/><polygon class="cls-14" points="99.57 723.95 99.57 721.59 101.9 721.59 101.9 723.92 104.26 723.92 104.24 726.26 106.57 726.26 106.57 728.59 108.9 728.59 833.27 728.58 833.25 726.26 108.93 726.25 108.95 723.95 106.59 723.92 106.58 721.58 104.26 721.59 104.27 719.24 101.94 719.25 101.89 723.95 99.57 723.95"/><polygon class="cls-13" points="847.21 704.11 847.21 74.12 844.88 74.12 844.88 71.78 842.51 71.78 842.54 69.44 840.21 69.44 840.21 67.12 837.88 67.12 101.83 67.12 101.85 69.45 837.85 69.45 837.83 71.76 840.18 71.79 840.2 74.13 842.52 74.11 842.51 76.46 844.84 76.46 844.88 704.11 847.21 704.11"/><polygon class="cls-22" points="1664.87 729.22 912.62 729.85 912.58 74.23 1664.97 74.11 1664.87 729.22"/><polygon class="cls-23" points="1655.58 701.41 1655.58 83.43 1655.58 81.09 1653.22 81.09 1653.24 78.75 1650.92 78.75 1650.92 76.43 1648.58 76.43 924.21 76.43 924.24 78.75 1648.55 78.76 1648.53 81.06 1650.89 81.09 1650.9 83.44 1653.23 83.42 1653.21 85.77 1653.25 701.4 1655.58 701.41"/><polygon class="cls-23" points="919.54 728.32 919.54 83.43 919.54 81.09 921.91 81.09 921.88 78.75 924.21 78.75 924.21 76.43 926.54 76.43 1660.26 76.43 1660.23 78.75 926.57 78.76 926.59 81.06 924.23 81.09 924.22 83.44 921.9 83.42 921.91 85.77 921.87 728.32 919.54 728.32"/><polygon class="cls-11" points="1664.95 701.45 1664.95 78.79 1662.62 78.79 1662.61 76.46 1660.25 76.46 1660.28 74.12 1657.95 74.12 1657.95 71.79 1655.62 71.76 1655.62 69.45 1655.62 69.45 919.56 69.46 919.59 76.46 1653.25 76.46 1653.26 78.8 1655.59 78.79 1655.57 81.14 1657.9 81.13 1657.95 701.44 1664.95 701.45"/><polygon class="cls-11" points="910.34 728.32 910.34 78.79 912.67 78.79 912.67 76.46 915.03 76.46 915.01 74.12 917.28 74.12 917.28 71.78 919.67 71.76 919.67 69.45 919.67 69.45 1654.55 69.46 1654.53 76.46 922.03 76.46 922.02 78.8 919.7 78.79 919.71 81.14 917.38 81.13 917.33 728.31 910.34 728.32"/><polygon class="cls-13" points="910.26 102.15 910.26 74.12 912.59 74.12 912.6 71.78 914.96 71.78 914.93 69.44 917.26 69.44 917.26 67.12 919.59 67.12 1655.64 67.12 1655.62 69.45 919.62 69.45 919.64 71.76 917.29 71.79 917.27 74.13 914.95 74.11 914.96 76.46 912.64 76.46 912.59 728.31 910.26 728.31 910.26 102.15"/><polygon class="cls-14" points="917.29 728.33 917.29 81.14 919.62 81.14 919.62 78.81 921.99 78.81 921.96 76.47 924.29 76.47 924.29 74.14 926.62 74.14 1650.99 74.15 1650.97 76.47 926.65 76.48 926.67 78.78 924.31 78.81 924.3 81.15 921.98 81.14 921.99 83.49 919.66 83.48 919.61 728.33 917.29 728.33"/><polygon class="cls-14" points="1657.9 702.63 1657.9 81.14 1655.57 81.14 1655.57 78.81 1653.2 78.81 1653.23 76.47 1650.9 76.47 1650.9 74.14 1648.57 74.14 924.2 74.15 924.22 76.47 1648.54 76.48 1648.52 78.78 1650.88 78.81 1650.89 81.15 1653.21 81.14 1653.2 83.49 1655.53 83.48 1655.58 702.63 1657.9 702.63"/><polygon class="cls-23" points="919.67 724 919.67 719.3 919.67 721.64 922.03 721.64 922.01 723.98 924.33 723.98 924.33 726.3 926.67 726.3 1651.03 726.3 1651.01 723.98 926.69 723.97 926.72 721.67 924.36 721.64 924.34 719.29 922.02 719.31 922.04 716.96 922 724.01 919.67 724"/><polygon class="cls-23" points="1655.66 699.23 1655.66 719.11 1655.66 721.45 1653.3 721.45 1653.32 723.78 1651 723.78 1651 726.11 1648.66 726.11 914.95 726.11 914.97 723.78 1648.64 723.78 1648.61 721.47 1650.97 721.44 1650.99 719.1 1653.31 719.12 1653.29 716.77 1653.34 699.24 1655.66 699.23"/><polygon class="cls-11" points="910.3 723.97 910.3 723.94 912.63 723.94 912.63 726.27 915 726.27 914.97 728.61 917.3 728.61 917.3 730.94 919.63 730.97 919.63 733.27 919.63 733.28 1655.68 733.27 1655.66 726.27 922 726.27 921.98 723.93 919.66 723.94 919.68 721.6 917.35 721.6 917.3 723.97 910.3 723.97"/><polygon class="cls-11" points="1664.91 701.41 1664.91 723.94 1662.58 723.94 1662.58 726.27 1660.21 726.27 1660.24 728.61 1657.97 728.61 1657.97 730.95 1655.58 730.97 1655.58 733.27 1655.58 733.28 920.7 733.27 920.72 726.27 1653.21 726.27 1653.23 723.93 1655.55 723.94 1655.54 721.6 1657.86 721.6 1657.91 701.41 1664.91 701.41"/><polygon class="cls-13" points="1664.98 715.77 1664.99 728.61 1662.65 728.61 1662.65 730.95 1660.29 730.95 1660.31 733.28 1657.99 733.28 1657.99 735.61 1655.65 735.61 919.6 735.61 919.63 733.28 1655.63 733.28 1655.61 730.97 1657.96 730.94 1657.98 728.6 1660.3 728.62 1660.28 726.27 1662.61 726.27 1662.66 704.11 1664.99 704.11 1664.98 715.77"/><polygon class="cls-14" points="1657.96 701.75 1657.96 721.59 1655.63 721.59 1655.63 723.92 1653.26 723.92 1653.29 726.26 1650.96 726.26 1650.96 728.59 1648.63 728.59 924.26 728.58 924.28 726.26 1648.6 726.25 1648.58 723.95 1650.93 723.92 1650.95 721.58 1653.27 721.59 1653.26 719.24 1655.58 719.25 1655.63 701.75 1657.96 701.75"/><polygon class="cls-13" points="910.26 723.97 910.26 728.61 912.59 728.61 912.59 730.95 914.96 730.95 914.93 733.28 917.26 733.28 917.26 735.61 919.59 735.61 1655.64 735.61 1655.62 733.28 919.62 733.28 919.64 730.97 917.28 730.94 917.27 728.6 914.95 728.62 914.96 726.27 912.63 726.27 912.58 723.97 910.26 723.97"/><polygon class="cls-14" points="917.35 723.95 917.35 721.59 919.68 721.59 919.68 723.92 922.04 723.92 922.02 726.26 924.35 726.26 924.35 728.59 926.68 728.59 1651.05 728.58 1651.03 726.26 926.71 726.25 926.73 723.95 924.37 723.92 924.36 721.58 922.04 721.59 922.05 719.24 919.72 719.25 919.67 723.95 917.35 723.95"/><polygon class="cls-13" points="1664.99 704.11 1664.99 74.12 1662.66 74.12 1662.65 71.78 1660.29 71.78 1660.32 69.44 1657.99 69.44 1657.99 67.12 1655.66 67.12 919.61 67.12 919.63 69.45 1655.63 69.45 1655.61 71.76 1657.96 71.79 1657.98 74.13 1660.3 74.11 1660.29 76.46 1662.61 76.46 1662.66 704.11 1664.99 704.11"/><polyline class="cls-4" points="21.1 640.31 30.46 640.31 30.4 855.2 21.1 855.2 21.1 490.17"/><polyline class="cls-4" points="21.11 107.36 30.52 107.36 30.46 257.69 21.1 257.69"/><rect class="cls-5" x="21.1" y="642.53" width="2.33" height="215.05"/><rect class="cls-6" x="21.09" y="745.35" width="2.33" height="4.66" transform="translate(44.52 1495.35) rotate(-180)"/><rect class="cls-7" x="21.09" y="740.67" width="2.33" height="4.67" transform="translate(44.52 1486.01) rotate(-180)"/><rect class="cls-6" x="21.09" y="726.65" width="2.33" height="4.66" transform="translate(44.52 1457.95) rotate(-180)"/><rect class="cls-7" x="21.09" y="721.97" width="2.33" height="4.67" transform="translate(44.52 1448.61) rotate(-180)"/><rect class="cls-8" x="28.12" y="647.26" width="2.33" height="203.22" transform="translate(58.58 1497.74) rotate(-180)"/><path class="cls-8" d="M23.42,642.51v2.38h2.35v2.31h2.34v-4.66S23.41,642.52,23.42,642.51Z"/><path class="cls-8" d="M28.12,850.48H25.75v2.35H23.43v2.34H28.1S28.11,850.48,28.12,850.48Z"/><path class="cls-8" d="M21.1,640.21v2.32h2.31v-2.32Z"/><path class="cls-8" d="M21.13,855.17v2.32h2.32v-2.32Z"/><rect class="cls-5" x="21.09" y="100.47" width="2.33" height="163.65"/><rect class="cls-7" x="21.1" y="236" width="2.33" height="4.67" transform="translate(44.53 476.66) rotate(-180)"/><rect class="cls-6" x="21.1" y="221.97" width="2.33" height="4.66" transform="translate(44.53 448.6) rotate(-180)"/><rect class="cls-7" x="21.1" y="217.3" width="2.33" height="4.67" transform="translate(44.53 439.26) rotate(-180)"/><rect class="cls-8" x="28.11" y="107.38" width="2.33" height="150.81" transform="translate(58.55 365.57) rotate(-180)"/><path class="cls-8" d="M28.11,254.68H25.74V257H23.42v2.34h4.67S28.1,254.68,28.11,254.68Z"/><path class="cls-8" d="M21.12,259.37v2.32h2.32v-2.32Z"/><path class="cls-8" d="M28.12,112.18H25.75v-2.35H23.43v-2.34H28.1S28.11,112.19,28.12,112.18Z"/><path class="cls-8" d="M21.13,107.49v-2.32h2.32v2.32S21.14,107.5,21.13,107.49Z"/><rect class="cls-9" x="2.41" y="301.49" width="16.43" height="9.29"/><rect class="cls-10" x="4.77" y="310.76" width="14.07" height="277.78"/><rect class="cls-11" x="4.77" y="310.76" width="14.07" height="277.78"/><rect class="cls-12" x="4.68" y="588.55" width="14.17" height="9.48"/><rect class="cls-10" x="9.42" y="310.76" width="2.39" height="277.77"/><rect class="cls-13" x="9.42" y="310.76" width="2.39" height="277.77"/><rect class="cls-10" x="16.5" y="310.76" width="2.39" height="277.77"/><rect class="cls-14" x="16.5" y="310.76" width="2.39" height="277.77"/><rect class="cls-10" x="14.08" y="310.76" width="2.39" height="277.77"/><rect class="cls-15" x="14.08" y="310.76" width="2.39" height="277.77"/><rect class="cls-16" x="9.43" y="301.47" width="2.37" height="9.28"/><rect class="cls-17" x="14.13" y="301.47" width="2.37" height="9.29"/><rect x="16.41" y="301.49" width="2.37" height="9.27"/><rect class="cls-18" x="9.43" y="294.49" width="2.37" height="16.4" transform="translate(313.31 292.07) rotate(90)"/><rect class="cls-9" x="2.38" y="588.58" width="16.46" height="9.48"/><rect class="cls-16" x="9.43" y="588.6" width="2.37" height="9.48"/><rect class="cls-17" x="14.13" y="588.6" width="2.37" height="9.48"/><rect x="16.5" y="588.58" width="2.37" height="9.48"/><rect class="cls-18" x="10.71" y="580.33" width="2.37" height="14.04" transform="translate(599.25 575.45) rotate(90)"/><rect class="cls-18" x="10.61" y="304.9" width="2.37" height="14.03" transform="translate(323.71 300.11) rotate(90)"/><path class="cls-19" d="M4.73,299l0-16.38H7v-2.35l2.32,0V278h2.39l0-2.3h2.33v-2.33h2.33V271h2.33v-2.33H21.1v-2.32h2.33V264h2.33V261.7h2.31l0-2.32h2.32V254.7H28.11V257H25.76v2.31l-2.32,0,0,2.34H21.07l0,2.31H18.75v2.33l-2.34,0,0,2.31H14.08V271H11.73v2.29H9.31v2.34H7V278H4.65l0,2.34H2.31v2.33H0L.05,299v2.34h21V299Z"/><path class="cls-19" d="M4.77,600.49v18.7H7.1v2.35H9.41v2.34l2.39,0,0,2.3h2.33v2.34H16.5v2.34h2.33v2.34h2.34v2.32l2.33,0v2.33h2.33v2.33h2.31l0,2.33h2.32v4.66H28.19v-2.35H25.84v-2.31H23.52l0-2.35H21.15l0-2.31H18.83v-2.33l-2.34,0v-2.3H14.16v-2.33H11.81v-2.3H9.39v-2.34H7.06v-2.33H4.73l0-2.34H2.39v-2.33H.08l.05-16.38v-4.76l18.63.1V301.41h2.33V600.49Z"/><polygon class="cls-19" points="21.11 100.47 23.44 100.47 23.42 102.81 25.74 102.8 25.76 105.14 28.14 105.12 28.16 107.43 30.5 107.43 30.51 109.76 32.84 109.77 32.84 257.01 30.5 257 30.5 112.12 28.15 112.11 28.15 109.81 25.73 109.81 25.73 107.47 23.4 107.47 23.4 105.15 21.07 105.15 21.09 102.81 18.73 102.81 18.73 100.47 16.42 100.47 16.46 14 16.38 6.99 18.77 7.04 18.79 4.63 21.13 4.66 21.09 2.32 23.43 2.33 23.44 0 361.06 0 361.06 2.35 25.77 2.34 25.76 4.69 23.43 4.68 23.42 6.99 21.05 7.01 21.11 100.47"/><polygon class="cls-19" points="21.14 862.16 23.46 862.16 23.45 859.82 25.77 859.83 25.79 857.49 28.17 857.51 28.19 855.2 30.53 855.2 30.54 852.87 32.87 852.86 32.87 644.89 30.53 644.9 30.53 850.51 28.18 850.52 28.18 852.82 25.76 852.82 25.76 855.16 23.43 855.16 23.43 857.48 21.1 857.48 21.12 859.82 18.76 859.82 18.76 862.16 16.45 862.16 16.49 936.95 16.41 943.96 18.8 943.91 18.82 946.32 21.16 946.29 21.11 948.63 23.45 948.62 23.47 950.95 361.09 950.95 361.09 948.6 25.8 948.61 25.79 946.26 23.46 946.27 23.45 943.95 21.07 943.94 21.14 862.16"/><polygon class="cls-19" points="371.58 941.63 1239.36 941.63 1239.36 939.27 369.26 939.29 369.23 941.61 366.91 941.62 366.9 943.93 364.56 943.95 364.55 946.3 362.23 946.29 362.23 948.63 359.89 948.63 359.89 950.97 364.57 950.96 364.57 948.63 366.9 948.64 366.91 946.29 369.26 946.28 369.24 943.97 371.59 943.97 371.58 941.63"/><polygon class="cls-19" points="1239.36 11.72 1239.36 9.4 371.67 9.4 371.67 7.05 369.34 7.05 369.35 4.71 367 4.7 366.99 2.36 364.68 2.38 364.68 0.03 362.35 0.04 359.99 0.04 360 2.36 362.32 2.38 362.33 4.71 364.64 4.72 364.66 7.05 367.01 7.07 367.01 9.39 369.35 9.39 369.34 11.72 1239.36 11.72"/><polygon class="cls-19" points="1239.36 30.39 56.15 30.4 56.14 32.72 53.8 32.73 53.8 35.05 51.47 35.04 51.44 37.38 51.44 509.34 53.84 509.34 53.84 37.38 56.13 37.39 56.13 35.06 58.46 35.06 58.48 32.72 1239.36 32.72 1239.36 30.39"/><polygon class="cls-19" points="1239.36 918.23 58.48 918.23 58.46 915.9 56.13 915.9 56.13 913.57 53.84 913.58 53.84 441.61 51.44 441.61 51.44 913.58 51.47 915.91 53.8 915.91 53.8 918.23 56.14 918.23 56.15 920.56 1239.36 920.57 1239.36 918.23"/><rect class="cls-12" x="35.12" y="341.16" width="2.33" height="35.02" transform="translate(394.96 322.39) rotate(90)"/><rect class="cls-20" x="35.11" y="338.83" width="2.33" height="35.02" transform="translate(-320.07 392.61) rotate(-90)"/><rect class="cls-21" x="18.78" y="355.17" width="2.32" height="2.29"/><rect class="cls-21" x="51.49" y="355.17" width="2.32" height="2.29"/><rect class="cls-12" x="35.12" y="527.13" width="2.33" height="35.02" transform="translate(-508.36 580.93) rotate(-90)"/><rect class="cls-20" x="35.14" y="529.47" width="2.33" height="35.02" transform="translate(583.28 510.67) rotate(90)"/><rect class="cls-21" x="51.47" y="545.85" width="2.32" height="2.29" transform="translate(105.27 1093.99) rotate(180)"/><rect class="cls-21" x="18.76" y="545.85" width="2.32" height="2.29" transform="translate(39.85 1093.99) rotate(180)"/><rect class="cls-12" x="40.96" y="669.66" width="2.33" height="23.34" transform="translate(723.46 639.2) rotate(90)"/><rect class="cls-20" x="40.95" y="667.33" width="2.33" height="23.33" transform="translate(-636.88 721.11) rotate(-90)"/><rect class="cls-21" x="30.46" y="677.83" width="2.32" height="2.29"/><rect class="cls-21" x="51.49" y="677.83" width="2.32" height="2.29"/><rect class="cls-12" x="40.96" y="797.83" width="2.33" height="23.34" transform="translate(-767.37 851.62) rotate(-90)"/><rect class="cls-20" x="40.98" y="800.16" width="2.33" height="23.33" transform="translate(853.98 769.69) rotate(90)"/><rect class="cls-21" x="51.47" y="810.7" width="2.32" height="2.29" transform="translate(105.27 1623.7) rotate(180)"/><rect class="cls-21" x="30.44" y="810.7" width="2.32" height="2.29" transform="translate(63.21 1623.7) rotate(180)"/><rect class="cls-12" x="40.96" y="107.73" width="2.33" height="23.34" transform="translate(161.53 77.27) rotate(90)"/><rect class="cls-20" x="41.25" y="105.67" width="2.27" height="22.78" transform="translate(-74.67 159.45) rotate(-90)"/><rect class="cls-21" x="30.46" y="115.9" width="2.32" height="2.29"/><rect class="cls-21" x="51.54" y="115.92" width="2.27" height="2.24"/><rect class="cls-12" x="40.96" y="212.53" width="2.33" height="23.34" transform="translate(-182.07 266.33) rotate(-90)"/><rect class="cls-20" x="40.98" y="214.87" width="2.33" height="23.33" transform="translate(268.68 184.39) rotate(90)"/><rect class="cls-21" x="51.47" y="225.41" width="2.32" height="2.29" transform="translate(105.27 453.11) rotate(180)"/><rect class="cls-21" x="30.44" y="225.41" width="2.32" height="2.29" transform="translate(63.21 453.11) rotate(180)"/><polyline class="cls-22" points="498.26 775.37 498.28 887.22 1250.52 886.5 1250.54 775.37"/><polygon class="cls-23" points="505.32 822.15 505.32 878.2 505.32 880.54 507.68 880.54 507.66 882.88 509.99 882.88 509.99 885.2 512.32 885.2 1236.69 885.2 1236.66 882.87 512.35 882.87 512.37 880.56 510.01 880.53 510 878.19 507.68 878.21 507.69 875.86 507.65 822.15 505.32 822.15"/><polygon class="cls-11" points="495.95 822.11 495.95 882.84 498.29 882.84 498.29 885.17 500.65 885.17 500.63 887.51 502.95 887.51 502.95 889.84 505.29 889.87 505.29 892.17 505.29 892.18 1241.34 892.17 1241.31 885.17 507.65 885.17 507.64 882.83 505.31 882.84 505.33 880.49 503 880.5 502.95 822.12 495.95 822.11"/><polygon class="cls-11" points="1250.57 836.16 1250.57 882.84 1248.23 882.84 1248.23 885.17 1245.87 885.17 1245.89 887.51 1243.63 887.51 1243.62 889.85 1241.23 889.87 1241.23 892.17 1241.23 892.18 506.35 892.17 506.37 885.17 1238.87 885.17 1238.88 882.83 1241.2 882.84 1241.19 880.49 1243.52 880.5 1243.57 836.16 1250.57 836.16"/><polygon class="cls-14" points="1243.61 836.12 1243.61 880.49 1241.28 880.49 1241.28 882.82 1238.91 882.82 1238.94 885.16 1236.61 885.16 1236.61 887.49 1234.28 887.49 509.91 887.48 509.93 885.16 1234.25 885.15 1234.23 882.85 1236.59 882.82 1236.6 880.48 1238.92 880.49 1238.91 878.14 1241.24 878.15 1241.29 836.12 1243.61 836.12"/><polygon class="cls-13" points="495.91 822.11 495.91 887.51 498.24 887.51 498.25 889.85 500.61 889.85 500.58 892.18 502.91 892.18 502.91 894.51 505.24 894.51 1241.3 894.51 1241.27 892.18 505.27 892.18 505.29 889.87 502.94 889.84 502.92 887.5 500.6 887.51 500.61 885.17 498.29 885.17 498.24 822.12 495.91 822.11"/><polygon class="cls-14" points="503 822.1 503 880.49 505.33 880.49 505.33 882.82 507.7 882.82 507.67 885.16 510 885.16 510 887.49 512.33 887.49 1236.7 887.48 1236.68 885.16 512.36 885.15 512.38 882.85 510.02 882.82 510.01 880.48 507.69 880.49 507.7 878.14 505.37 878.15 505.32 822.1 503 822.1"/><g class="cls-24"><path class="cls-25" d="M708.06,810.84v-2.63h2.63v2.63Zm2.63,5.26h-2.63v-2.63h2.63Zm0-2.63v-2.63h2.63v2.63Zm5.26-7.89v5.26h-2.63v-5.26Zm0,13.15h-2.63v-5.26H716Zm2.63-7.89v2.63H716v-2.63Zm0-2.63h2.63v2.63h-2.63Zm2.63,5.26v2.63h-2.63v-2.63Z"/><path class="cls-25" d="M726.46,810.84v-2.63h2.63v2.63Zm2.63,5.26h-2.63v-2.63h2.63Zm0-2.63v-2.63h2.63v2.63Zm5.26-7.89v5.26h-2.63v-5.26Zm0,13.15h-2.63v-5.26h2.63Zm2.63-7.89v2.63h-2.63v-2.63Zm0-2.63h2.63v2.63H737Zm2.63,5.26v2.63H737v-2.63Z"/><path class="cls-25" d="M747.49,818.73h-2.63V805.58h2.63ZM755.38,803v2.63h-7.89V803Zm0,15.78v2.63h-7.89v-2.63ZM758,805.58v2.63h-2.63v-2.63Zm-2.63,10.52H758v2.63h-2.63Z"/><path class="cls-25" d="M765.89,803v15.78h7.89v2.63H763.26V803Z"/><path class="cls-25" d="M792.18,805.58v15.78h-2.63V816.1h-7.88v5.26H779V805.58h2.63v7.89h7.88v-7.89ZM789.55,803v2.63h-7.88V803Z"/><path class="cls-25" d="M805.32,803v2.63h-2.63v13.15h2.63v2.63h-7.88v-2.63h2.62V805.58h-2.62V803Z"/><path class="cls-25" d="M813.21,803v5.26h2.63v2.63h-2.63v10.52h-2.63V803Zm7.89,7.89v2.63h-5.26v-2.63Zm0-2.63h2.62V803h2.63v18.41h-2.63V810.84H821.1Z"/><path class="cls-25" d="M844.75,803v7.89h-2.63V803Zm2.63,7.89v2.63h-2.63v-2.63Zm2.63,2.63v7.89h-2.63v-7.89Zm0-2.63h2.63v2.63H850Zm2.63-7.89h2.63v7.89h-2.63Z"/><path class="cls-25" d="M860.52,818.73V805.58h2.63v13.15ZM871,803v2.63h-7.89V803Zm0,18.41h-7.89v-2.63H871Zm2.63-15.78v13.15H871V805.58Z"/><path class="cls-25" d="M881.55,803v15.78h-2.63V803Zm7.89,15.78v2.63h-7.89v-2.63Zm0-15.78h2.63v15.78h-2.63Z"/><path class="cls-25" d="M907.84,803v2.63H900v5.26h7.89v5.26h-2.63v-2.63H900v7.89h-2.63V803Zm2.63,2.63v5.26h-2.63v-5.26Zm0,10.52v5.26h-2.63V816.1Z"/><path class="cls-25" d="M936.75,803v2.63h-7.88v5.26h7.88v2.63h-7.88v7.89h-2.63V803Zm2.63,2.63v5.26h-2.63v-5.26Z"/><path class="cls-25" d="M955.15,803v2.63h-7.89v5.26h7.89v5.26h-2.63v-2.63h-5.26v7.89h-2.62V803Zm2.63,2.63v5.26h-2.63v-5.26Zm0,10.52v5.26h-2.63V816.1Z"/><path class="cls-25" d="M970.92,803v2.63H968.3v13.15h2.62v2.63H963v-2.63h2.63V805.58H963V803Z"/><path class="cls-25" d="M989.32,803v5.26H986.7v-2.63H976.18V803Zm-10.51,15.78h10.51v2.63H976.18V816.1h2.63Zm2.63-2.63h-2.63v-2.63h2.63Zm2.63-2.63h-2.63v-2.63h2.63Zm2.63-2.63h-2.63v-2.63h2.63Z"/><path class="cls-25" d="M1007.72,803v2.63H997.21v5.26h7.89v2.63h-7.89v5.26h10.51v2.63H994.58V803Z"/><path class="cls-25" d="M1013,810.84v-2.63h2.63v2.63Zm2.63,5.26H1013v-2.63h2.63Zm0-2.63v-2.63h2.63v2.63Zm5.26-7.89v5.26h-2.63v-5.26Zm0,13.15h-2.63v-5.26h2.63Zm2.63-7.89v2.63h-2.63v-2.63Zm0-2.63h2.63v2.63h-2.63Zm2.63,5.26v2.63h-2.63v-2.63Z"/><path class="cls-25" d="M1031.38,810.84v-2.63H1034v2.63Zm2.63,5.26h-2.63v-2.63H1034Zm0-2.63v-2.63h2.63v2.63Zm5.26-7.89v5.26h-2.63v-5.26Zm0,13.15h-2.63v-5.26h2.63Zm2.63-7.89v2.63h-2.63v-2.63Zm0-2.63h2.62v2.63h-2.62Zm2.62,5.26v2.63h-2.62v-2.63Z"/><path class="cls-25" d="M543.3,840.53v2h-4v12h-2v-12h-4v-2Z"/><path class="cls-25" d="M547.29,852.53v-8h2v8Zm8-10v2h-6v-2Zm0,12h-6v-2h6Zm2-10v8h-2v-8Z"/><path class="cls-25" d="M569.3,842.53v2h-6v6h6v2h-6v4h-2v-14Zm2,2v6h-2v-6Z"/><path class="cls-25" d="M585.29,840.53v4h6v2h-6v6h-2v-12Zm6,12v2h-6v-2Z"/><path class="cls-25" d="M605.3,844.53v4h-8v4h-2v-8h2v2h6v-2Zm-2-2v2h-6v-2Zm2,10v2h-8v-2Z"/><path class="cls-25" d="M613.29,846.53h-2v8h-2v-10h4Zm4-4v2h-4v-2Zm2,2v10h-2v-10Z"/><path class="cls-25" d="M639.3,842.53v2h-6v6h6v2h-6v4h-2v-14Zm2,2v6h-2v-6Z"/><path class="cls-25" d="M647.29,842.53v10h-2v-10Zm4,10v2h-4v-2Z"/><path class="cls-25" d="M655.29,852.53v-4h2v4Zm8-10v2h-6v-2Zm2,2v10h-8v-2h6v-4h-6v-2h6v-2Z"/><path class="cls-25" d="M671.29,842.53v6h-2v-6Zm2,12h-4v-2h4Zm2-6v4h-2v-2h-2v-2Zm0-6h2v6h-2Z"/><path class="cls-25" d="M691.3,844.53v4h-8v4h-2v-8h2v2h6v-2Zm-2-2v2h-6v-2Zm2,10v2h-8v-2Z"/><path class="cls-25" d="M697.29,842.53v2h2v2h-2v8h-2v-12Zm2,0h4v2h-4Z"/><path class="cls-25" d="M715.29,852.53v-8h2v8Zm4,2h-2v-2h2Zm0-2v-8h2v8Zm6,2h-4v-2h4Zm2-12v10h-2v-10Z"/><path class="cls-25" d="M735.29,844.53v8h2v2h-6v-2h2v-6h-2v-2Zm0-4v2h-2v-2Z"/><path class="cls-25" d="M743.29,842.53v10h-2v-10Zm4,10v2h-4v-2Z"/><path class="cls-25" d="M753.29,842.53v10h-2v-10Zm4,10v2h-4v-2Z"/><path class="cls-25" d="M771.29,842.53v2h2v2h-2v8h-2v-12Zm2,0h4v2h-4Z"/><path class="cls-25" d="M791.3,844.53v4h-8v4h-2v-8h2v2h6v-2Zm-2-2v2h-6v-2Zm2,10v2h-8v-2Z"/><path class="cls-25" d="M797.29,852.53h-2v-8h2Zm6-10v2h-6v-2Zm2,10v2h-8v-2Zm0-8v2h-2v-2Z"/><path class="cls-25" d="M813.29,844.53v8h2v2h-6v-2h2v-6h-2v-2Zm0-4v2h-2v-2Z"/><path class="cls-25" d="M829.3,844.53v4h-8v4h-2v-8h2v2h6v-2Zm-2-2v2h-6v-2Zm2,10v2h-8v-2Z"/><path class="cls-25" d="M835.29,842.53v6h-2v-6Zm2,6v4h-2v-4Zm2,4v2h-2v-2Zm0-4h2v4h-2Zm2-6h2v6h-2Z"/><path class="cls-25" d="M857.3,844.53v4h-8v4h-2v-8h2v2h6v-2Zm-2-2v2h-6v-2Zm2,10v2h-8v-2Z"/><path class="cls-25" d="M869.29,848.53v-4h2v4Zm0,6v-2h2v2Zm8-12v2h-2v4h2v2h-2v4h2v2h-6v-2h2v-4h-2v-2h2v-4h-2v-2Zm2,2v2h-2v-2Zm0,6v4h-2v-4Z"/><path class="cls-25" d="M893.3,840.53v2h-8v2h6v2h-8v-6Zm-10,12v-2h2v2Zm8,2h-6v-2h6Zm2-8v6h-2v-6Z"/><path class="cls-25" d="M897.29,852.53v-10h2v10Zm8-12v2h-6v-2Zm0,14h-6v-2h6Zm-2-10v6h-2v-6Zm4-2v10h-2v-10Z"/><path class="cls-25" d="M923.29,846.53h4v2h-4v6h-2v-6h-2v-2h2v-4h2Zm6-6v2h-6v-2Z"/><path class="cls-25" d="M933.29,852.53v-8h2v8Zm8-10v2h-6v-2Zm0,12h-6v-2h6Zm2-10v8h-2v-8Z"/><path class="cls-25" d="M949.29,842.53v2h2v2h-2v8h-2v-12Zm2,0h4v2h-4Z"/><path class="cls-25" d="M969.29,840.53v4h6v2h-6v6h-2v-12Zm6,12v2h-6v-2Z"/><path class="cls-25" d="M981.29,840.53v6h2v2h-2v6h-2v-14Zm2,4h4v2h-4Zm6,2v8h-2v-8Z"/><path class="cls-25" d="M1003.3,844.53v4h-8v4h-2v-8h2v2h6v-2Zm-2-2v2h-6v-2Zm2,10v2h-8v-2Z"/><path class="cls-25" d="M1017.29,852.53h-2v-8h2Zm6-10v2h-6v-2Zm2,10v2h-8v-2Zm0-8v2h-2v-2Z"/><path class="cls-25" d="M1029.29,852.53v-8h2v8Zm8-10v2h-6v-2Zm0,12h-6v-2h6Zm2-10v8h-2v-8Z"/><path class="cls-25" d="M1043.29,852.53v-8h2v8Zm8-10v2h-6v-2Zm0,12h-6v-2h6Zm2-10v8h-2v-8Z"/><path class="cls-25" d="M1059.29,842.53v10h-2v-10Zm4,10v2h-4v-2Z"/><path class="cls-25" d="M1077.29,846.53h-2v-2h2Zm-2,6v-2h2v2Zm8-10v2h-6v-2Zm0,4v2h-6v-2Zm0,8h-6v-2h6Zm2-6v4h-2v-4Z"/><path class="cls-25" d="M1091.29,840.53v4h6v2h-6v6h-2v-12Zm6,12v2h-6v-2Z"/><path class="cls-25" d="M1103.29,842.53v10h-2v-10Zm4,10v2h-4v-2Zm0-2h2v-8h2v12h-2v-2h-2Z"/><path class="cls-25" d="M1119.29,846.53h4v2h-4v6h-2v-6h-2v-2h2v-4h2Zm6-6v2h-6v-2Z"/><path class="cls-25" d="M1133.29,846.53h4v2h-4v6h-2v-6h-2v-2h2v-4h2Zm6-6v2h-6v-2Z"/><path class="cls-25" d="M1153.29,846.53h-2v-2h2Zm-2,6v-2h2v2Zm8-10v2h-6v-2Zm0,4v2h-6v-2Zm0,8h-6v-2h6Zm2-6v4h-2v-4Z"/><path class="cls-25" d="M1167.29,840.53v4h6v2h-6v6h-2v-12Zm6,12v2h-6v-2Z"/><path class="cls-25" d="M1177.29,852.53v-8h2v8Zm8-10v2h-6v-2Zm0,12h-6v-2h6Zm2-10v8h-2v-8Z"/><path class="cls-25" d="M1193.29,842.53v2h2v2h-2v8h-2v-12Zm2,0h4v2h-4Z"/><path class="cls-25" d="M1213.3,844.53v4h-8v4h-2v-8h2v2h6v-2Zm-2-2v2h-6v-2Zm2,10v2h-8v-2Z"/><path class="cls-25" d="M1219.29,852.53v2h-2v-2Z"/></g><path class="cls-26" d="M706.9,809.67V807h2.62v2.63Zm2.62,5.26H706.9V812.3h2.62Zm0-2.63v-2.63h2.63v2.63Zm5.26-7.89v5.26h-2.63v-5.26Zm0,13.15h-2.63V812.3h2.63Zm2.63-7.89v2.63h-2.63v-2.63Zm0-2.63H720v2.63h-2.63ZM720,812.3v2.63h-2.63V812.3Z"/><path class="cls-26" d="M725.3,809.67V807h2.62v2.63Zm2.62,5.26H725.3V812.3h2.62Zm0-2.63v-2.63h2.63v2.63Zm5.26-7.89v5.26h-2.63v-5.26Zm0,13.15h-2.63V812.3h2.63Zm2.63-7.89v2.63h-2.63v-2.63Zm0-2.63h2.63v2.63h-2.63Zm2.63,5.26v2.63h-2.63V812.3Z"/><path class="cls-26" d="M746.32,817.56H743.7V804.41h2.62Zm7.89-15.78v2.63h-7.89v-2.63Zm0,15.78v2.63h-7.89v-2.63Zm2.63-13.15V807h-2.63v-2.63Zm-2.63,10.52h2.63v2.63h-2.63Z"/><path class="cls-26" d="M764.72,801.78v15.78h7.89v2.63H762.1V801.78Z"/><path class="cls-26" d="M791,804.41v15.78h-2.63v-5.26H780.5v5.26h-2.63V804.41h2.63v7.89h7.88v-7.89Zm-2.63-2.63v2.63H780.5v-2.63Z"/><path class="cls-26" d="M804.15,801.78v2.63h-2.62v13.15h2.62v2.63h-7.88v-2.63h2.63V804.41h-2.63v-2.63Z"/><path class="cls-26" d="M812,801.78V807h2.63v2.63H812v10.52h-2.63V801.78Zm7.89,7.89v2.63h-5.26v-2.63Zm0-2.63h2.63v-5.26h2.62v18.41h-2.62V809.67h-2.63Z"/><path class="cls-26" d="M843.58,801.78v7.89H841v-7.89Zm2.63,7.89v2.63h-2.63v-2.63Zm2.63,2.63v7.89h-2.63V812.3Zm0-2.63h2.63v2.63h-2.63Zm2.63-7.89h2.63v7.89h-2.63Z"/><path class="cls-26" d="M859.35,817.56V804.41H862v13.15Zm10.52-15.78v2.63H862v-2.63Zm0,18.41H862v-2.63h7.89Zm2.63-15.78v13.15h-2.63V804.41Z"/><path class="cls-26" d="M880.38,801.78v15.78h-2.63V801.78Zm7.89,15.78v2.63h-7.89v-2.63Zm0-15.78h2.63v15.78h-2.63Z"/><path class="cls-26" d="M906.67,801.78v2.63h-7.89v5.26h7.89v5.26H904V812.3h-5.26v7.89h-2.63V801.78Zm2.63,2.63v5.26h-2.63v-5.26Zm0,10.52v5.26h-2.63v-5.26Z"/><path class="cls-26" d="M935.58,801.78v2.63H927.7v5.26h7.88v2.63H927.7v7.89h-2.63V801.78Zm2.63,2.63v5.26h-2.63v-5.26Z"/><path class="cls-26" d="M954,801.78v2.63H946.1v5.26H954v5.26h-2.63V812.3H946.1v7.89h-2.63V801.78Zm2.63,2.63v5.26H954v-5.26Zm0,10.52v5.26H954v-5.26Z"/><path class="cls-26" d="M969.76,801.78v2.63h-2.63v13.15h2.63v2.63h-7.89v-2.63h2.63V804.41h-2.63v-2.63Z"/><path class="cls-26" d="M988.16,801.78V807h-2.63v-2.63H975v-2.63Zm-10.52,15.78h10.52v2.63H975v-5.26h2.63Zm2.63-2.63h-2.63V812.3h2.63Zm2.63-2.63h-2.63v-2.63h2.63Zm2.63-2.63H982.9V807h2.63Z"/><path class="cls-26" d="M1006.56,801.78v2.63H996v5.26h7.89v2.63H996v5.26h10.52v2.63H993.41V801.78Z"/><path class="cls-26" d="M1011.81,809.67V807h2.63v2.63Zm2.63,5.26h-2.63V812.3h2.63Zm0-2.63v-2.63h2.63v2.63Zm5.26-7.89v5.26h-2.63v-5.26Zm0,13.15h-2.63V812.3h2.63Zm2.63-7.89v2.63h-2.63v-2.63Zm0-2.63H1025v2.63h-2.63Zm2.63,5.26v2.63h-2.63V812.3Z"/><path class="cls-26" d="M1030.21,809.67V807h2.63v2.63Zm2.63,5.26h-2.63V812.3h2.63Zm0-2.63v-2.63h2.63v2.63Zm5.26-7.89v5.26h-2.63v-5.26Zm0,13.15h-2.63V812.3h2.63Zm2.63-7.89v2.63h-2.63v-2.63Zm0-2.63h2.63v2.63h-2.63Zm2.63,5.26v2.63h-2.63V812.3Z"/><path class="cls-26" d="M542.13,839.36v2h-4v12h-2v-12h-4v-2Z"/><path class="cls-26" d="M546.12,851.36v-8h2v8Zm8-10v2h-6v-2Zm0,12h-6v-2h6Zm2-10v8h-2v-8Z"/><path class="cls-26" d="M568.13,841.36v2h-6v6h6v2h-6v4h-2v-14Zm2,2v6h-2v-6Z"/><path class="cls-26" d="M584.13,839.36v4h6v2h-6v6h-2v-12Zm6,12v2h-6v-2Z"/><path class="cls-26" d="M604.13,843.36v4h-8v4h-2v-8h2v2h6v-2Zm-2-2v2h-6v-2Zm2,10v2h-8v-2Z"/><path class="cls-26" d="M612.13,845.36h-2v8h-2v-10h4Zm4-4v2h-4v-2Zm2,2v10h-2v-10Z"/><path class="cls-26" d="M638.13,841.36v2h-6v6h6v2h-6v4h-2v-14Zm2,2v6h-2v-6Z"/><path class="cls-26" d="M646.13,841.36v10h-2v-10Zm4,10v2h-4v-2Z"/><path class="cls-26" d="M654.12,851.36v-4h2v4Zm8-10v2h-6v-2Zm2,2v10h-8v-2h6v-4h-6v-2h6v-2Z"/><path class="cls-26" d="M670.13,841.36v6h-2v-6Zm2,12h-4v-2h4Zm2-6v4h-2v-2h-2v-2Zm0-6h2v6h-2Z"/><path class="cls-26" d="M690.13,843.36v4h-8v4h-2v-8h2v2h6v-2Zm-2-2v2h-6v-2Zm2,10v2h-8v-2Z"/><path class="cls-26" d="M696.13,841.36v2h2v2h-2v8h-2v-12Zm2,0h4v2h-4Z"/><path class="cls-26" d="M714.12,851.36v-8h2v8Zm4,2h-2v-2h2Zm0-2v-8h2v8Zm6,2h-4v-2h4Zm2-12v10h-2v-10Z"/><path class="cls-26" d="M734.13,843.36v8h2v2h-6v-2h2v-6h-2v-2Zm0-4v2h-2v-2Z"/><path class="cls-26" d="M742.13,841.36v10h-2v-10Zm4,10v2h-4v-2Z"/><path class="cls-26" d="M752.13,841.36v10h-2v-10Zm4,10v2h-4v-2Z"/><path class="cls-26" d="M770.13,841.36v2h2v2h-2v8h-2v-12Zm2,0h4v2h-4Z"/><path class="cls-26" d="M790.13,843.36v4h-8v4h-2v-8h2v2h6v-2Zm-2-2v2h-6v-2Zm2,10v2h-8v-2Z"/><path class="cls-26" d="M796.13,851.36h-2v-8h2Zm6-10v2h-6v-2Zm2,10v2h-8v-2Zm0-8v2h-2v-2Z"/><path class="cls-26" d="M812.13,843.36v8h2v2h-6v-2h2v-6h-2v-2Zm0-4v2h-2v-2Z"/><path class="cls-26" d="M828.13,843.36v4h-8v4h-2v-8h2v2h6v-2Zm-2-2v2h-6v-2Zm2,10v2h-8v-2Z"/><path class="cls-26" d="M834.13,841.36v6h-2v-6Zm2,6v4h-2v-4Zm2,4v2h-2v-2Zm0-4h2v4h-2Zm2-6h2v6h-2Z"/><path class="cls-26" d="M856.13,843.36v4h-8v4h-2v-8h2v2h6v-2Zm-2-2v2h-6v-2Zm2,10v2h-8v-2Z"/><path class="cls-26" d="M868.12,847.36v-4h2v4Zm0,6v-2h2v2Zm8-12v2h-2v4h2v2h-2v4h2v2h-6v-2h2v-4h-2v-2h2v-4h-2v-2Zm2,2v2h-2v-2Zm0,6v4h-2v-4Z"/><path class="cls-26" d="M892.13,839.36v2h-8v2h6v2h-8v-6Zm-10,12v-2h2v2Zm8,2h-6v-2h6Zm2-8v6h-2v-6Z"/><path class="cls-26" d="M896.12,851.36v-10h2v10Zm8-12v2h-6v-2Zm0,14h-6v-2h6Zm-2-10v6h-2v-6Zm4-2v10h-2v-10Z"/><path class="cls-26" d="M922.13,845.36h4v2h-4v6h-2v-6h-2v-2h2v-4h2Zm6-6v2h-6v-2Z"/><path class="cls-26" d="M932.12,851.36v-8h2v8Zm8-10v2h-6v-2Zm0,12h-6v-2h6Zm2-10v8h-2v-8Z"/><path class="cls-26" d="M948.13,841.36v2h2v2h-2v8h-2v-12Zm2,0h4v2h-4Z"/><path class="cls-26" d="M968.13,839.36v4h6v2h-6v6h-2v-12Zm6,12v2h-6v-2Z"/><path class="cls-26" d="M980.13,839.36v6h2v2h-2v6h-2v-14Zm2,4h4v2h-4Zm6,2v8h-2v-8Z"/><path class="cls-26" d="M1002.13,843.36v4h-8v4h-2v-8h2v2h6v-2Zm-2-2v2h-6v-2Zm2,10v2h-8v-2Z"/><path class="cls-26" d="M1016.13,851.36h-2v-8h2Zm6-10v2h-6v-2Zm2,10v2h-8v-2Zm0-8v2h-2v-2Z"/><path class="cls-26" d="M1028.12,851.36v-8h2v8Zm8-10v2h-6v-2Zm0,12h-6v-2h6Zm2-10v8h-2v-8Z"/><path class="cls-26" d="M1042.12,851.36v-8h2v8Zm8-10v2h-6v-2Zm0,12h-6v-2h6Zm2-10v8h-2v-8Z"/><path class="cls-26" d="M1058.13,841.36v10h-2v-10Zm4,10v2h-4v-2Z"/><path class="cls-26" d="M1076.13,845.36h-2v-2h2Zm-2,6v-2h2v2Zm8-10v2h-6v-2Zm0,4v2h-6v-2Zm0,8h-6v-2h6Zm2-6v4h-2v-4Z"/><path class="cls-26" d="M1090.13,839.36v4h6v2h-6v6h-2v-12Zm6,12v2h-6v-2Z"/><path class="cls-26" d="M1102.13,841.36v10h-2v-10Zm4,10v2h-4v-2Zm0-2h2v-8h2v12h-2v-2h-2Z"/><path class="cls-26" d="M1118.13,845.36h4v2h-4v6h-2v-6h-2v-2h2v-4h2Zm6-6v2h-6v-2Z"/><path class="cls-26" d="M1132.13,845.36h4v2h-4v6h-2v-6h-2v-2h2v-4h2Zm6-6v2h-6v-2Z"/><path class="cls-26" d="M1152.13,845.36h-2v-2h2Zm-2,6v-2h2v2Zm8-10v2h-6v-2Zm0,4v2h-6v-2Zm0,8h-6v-2h6Zm2-6v4h-2v-4Z"/><path class="cls-26" d="M1166.13,839.36v4h6v2h-6v6h-2v-12Zm6,12v2h-6v-2Z"/><path class="cls-26" d="M1176.12,851.36v-8h2v8Zm8-10v2h-6v-2Zm0,12h-6v-2h6Zm2-10v8h-2v-8Z"/><path class="cls-26" d="M1192.13,841.36v2h2v2h-2v8h-2v-12Zm2,0h4v2h-4Z"/><path class="cls-26" d="M1212.13,843.36v4h-8v4h-2v-8h2v2h6v-2Zm-2-2v2h-6v-2Zm2,10v2h-8v-2Z"/><path class="cls-26" d="M1218.13,851.36v2h-2v-2Z"/><polygon class="cls-23" points="505.32 822.15 505.32 878.2 505.32 880.54 507.68 880.54 507.66 882.88 509.99 882.88 509.99 885.2 512.32 885.2 1236.69 885.2 1236.66 882.87 512.35 882.87 512.37 880.56 510.01 880.53 510 878.19 507.68 878.21 507.69 875.86 507.65 822.15 505.32 822.15"/><polygon class="cls-23" points="1241.31 836.18 1241.32 878.01 1241.32 880.34 1238.95 880.34 1238.98 882.68 1236.65 882.68 1236.65 885.01 1234.32 885.01 500.6 885.01 500.63 882.68 1234.29 882.67 1234.27 880.37 1236.62 880.34 1236.64 878 1238.96 878.01 1238.95 875.67 1238.99 836.18 1241.31 836.18"/><polygon class="cls-11" points="495.95 822.11 495.95 882.84 498.29 882.84 498.29 885.17 500.65 885.17 500.63 887.51 502.95 887.51 502.95 889.84 505.29 889.87 505.29 892.17 505.29 892.18 1241.34 892.17 1241.31 885.17 507.65 885.17 507.64 882.83 505.31 882.84 505.33 880.49 503 880.5 502.95 822.12 495.95 822.11"/><polygon class="cls-11" points="1247.96 836.15 1248.23 885.17 1245.87 885.17 1245.89 887.51 1243.63 887.51 1243.62 889.85 1241.23 889.87 1241.23 892.17 1241.23 892.18 506.35 892.17 506.37 885.17 1238.87 885.17 1238.88 882.83 1241.2 882.84 1241.19 880.49 1243.52 880.5 1243.57 836.17 1247.96 836.15"/><polygon class="cls-14" points="1243.61 836.12 1243.61 880.49 1241.28 880.49 1241.28 882.82 1238.91 882.82 1238.94 885.16 1236.61 885.16 1236.61 887.49 1234.28 887.49 509.91 887.48 509.93 885.16 1234.25 885.15 1234.23 882.85 1236.59 882.82 1236.6 880.48 1238.92 880.49 1238.91 878.14 1241.24 878.15 1241.29 836.12 1243.61 836.12"/><polygon class="cls-13" points="495.91 822.11 495.91 887.51 498.24 887.51 498.25 889.85 500.61 889.85 500.58 892.18 502.91 892.18 502.91 894.51 505.24 894.51 1241.3 894.51 1241.27 892.18 505.27 892.18 505.29 889.87 502.94 889.84 502.92 887.5 500.6 887.51 500.61 885.17 498.29 885.17 498.24 822.12 495.91 822.11"/><polygon class="cls-14" points="503 822.1 503 880.49 505.33 880.49 505.33 882.82 507.7 882.82 507.67 885.16 510 885.16 510 887.49 512.33 887.49 1236.7 887.48 1236.68 885.16 512.36 885.15 512.38 882.85 510.02 882.82 510.01 880.48 507.69 880.49 507.7 878.14 505.37 878.15 505.32 822.1 503 822.1"/><polygon class="cls-13" points="1250.64 768.35 1250.64 887.51 1248.31 887.51 1248.31 889.85 1245.94 889.85 1245.97 892.18 1243.64 892.18 1243.64 894.51 1241.31 894.51 505.26 894.51 505.28 892.18 1241.28 892.18 1241.26 889.87 1243.62 889.84 1243.63 887.5 1245.95 887.51 1245.94 885.17 1248.27 885.17 1248.32 836.13 1250.64 836.13 1250.64 768.35"/><polygon class="cls-23" points="505.32 822.15 505.32 878.2 505.32 880.54 507.68 880.54 507.66 882.88 509.99 882.88 509.99 885.2 512.32 885.2 1236.69 885.2 1236.66 882.87 512.35 882.87 512.37 880.56 510.01 880.53 510 878.19 507.68 878.21 507.69 875.86 507.65 822.15 505.32 822.15"/><polygon class="cls-11" points="495.95 822.11 495.95 882.84 498.29 882.84 498.29 885.17 500.65 885.17 500.63 887.51 502.95 887.51 502.95 889.84 505.29 889.87 505.29 892.17 505.29 892.18 1241.34 892.17 1241.31 885.17 507.65 885.17 507.64 882.83 505.31 882.84 505.33 880.49 503 880.5 502.95 822.12 495.95 822.11"/><polygon class="cls-11" points="1250.57 836.16 1250.57 882.84 1248.23 882.84 1248.23 885.17 1245.87 885.17 1245.89 887.51 1243.63 887.51 1243.62 889.85 1241.23 889.87 1241.23 892.17 1241.23 892.18 506.35 892.17 506.37 885.17 1238.87 885.17 1238.88 882.83 1241.2 882.84 1241.19 880.49 1243.52 880.5 1243.57 836.16 1250.57 836.16"/><polygon class="cls-14" points="1243.61 836.12 1243.61 880.49 1241.28 880.49 1241.28 882.82 1238.91 882.82 1238.94 885.16 1236.61 885.16 1236.61 887.49 1234.28 887.49 509.91 887.48 509.93 885.16 1234.25 885.15 1234.23 882.85 1236.59 882.82 1236.6 880.48 1238.92 880.49 1238.91 878.14 1241.24 878.15 1241.29 836.12 1243.61 836.12"/><polygon class="cls-13" points="495.91 822.11 495.91 887.51 498.24 887.51 498.25 889.85 500.61 889.85 500.58 892.18 502.91 892.18 502.91 894.51 505.24 894.51 1241.3 894.51 1241.27 892.18 505.27 892.18 505.29 889.87 502.94 889.84 502.92 887.5 500.6 887.51 500.61 885.17 498.29 885.17 498.24 822.12 495.91 822.11"/><polygon class="cls-14" points="503 822.1 503 880.49 505.33 880.49 505.33 882.82 507.7 882.82 507.67 885.16 510 885.16 510 887.49 512.33 887.49 1236.7 887.48 1236.68 885.16 512.36 885.15 512.38 882.85 510.02 882.82 510.01 880.48 507.69 880.49 507.7 878.14 505.37 878.15 505.32 822.1 503 822.1"/><polygon class="cls-23" points="505.32 822.15 505.32 878.2 505.32 880.54 507.68 880.54 507.66 882.88 509.99 882.88 509.99 885.2 512.32 885.2 1236.69 885.2 1236.66 882.87 512.35 882.87 512.37 880.56 510.01 880.53 510 878.19 507.68 878.21 507.69 875.86 507.65 822.15 505.32 822.15"/><polygon class="cls-23" points="1241.31 836.18 1241.32 878.01 1241.32 880.34 1238.95 880.34 1238.98 882.68 1236.65 882.68 1236.65 885.01 1234.32 885.01 500.6 885.01 500.63 882.68 1234.29 882.67 1234.27 880.37 1236.62 880.34 1236.64 878 1238.96 878.01 1238.95 875.67 1238.99 836.18 1241.31 836.18"/><polygon class="cls-11" points="495.95 822.11 495.95 882.84 498.29 882.84 498.29 885.17 500.65 885.17 500.63 887.51 502.95 887.51 502.95 889.84 505.29 889.87 505.29 892.17 505.29 892.18 1241.34 892.17 1241.31 885.17 507.65 885.17 507.64 882.83 505.31 882.84 505.33 880.49 503 880.5 502.95 822.12 495.95 822.11"/><polygon class="cls-11" points="1247.96 836.15 1248.23 885.17 1245.87 885.17 1245.89 887.51 1243.63 887.51 1243.62 889.85 1241.23 889.87 1241.23 892.17 1241.23 892.18 506.35 892.17 506.37 885.17 1238.87 885.17 1238.88 882.83 1241.2 882.84 1241.19 880.49 1243.52 880.5 1243.57 836.17 1247.96 836.15"/><polygon class="cls-14" points="1243.61 836.12 1243.61 880.49 1241.28 880.49 1241.28 882.82 1238.91 882.82 1238.94 885.16 1236.61 885.16 1236.61 887.49 1234.28 887.49 509.91 887.48 509.93 885.16 1234.25 885.15 1234.23 882.85 1236.59 882.82 1236.6 880.48 1238.92 880.49 1238.91 878.14 1241.24 878.15 1241.29 836.12 1243.61 836.12"/><polygon class="cls-13" points="495.91 822.11 495.91 887.51 498.24 887.51 498.25 889.85 500.61 889.85 500.58 892.18 502.91 892.18 502.91 894.51 505.24 894.51 1241.3 894.51 1241.27 892.18 505.27 892.18 505.29 889.87 502.94 889.84 502.92 887.5 500.6 887.51 500.61 885.17 498.29 885.17 498.24 822.12 495.91 822.11"/><polygon class="cls-14" points="503 822.1 503 880.49 505.33 880.49 505.33 882.82 507.7 882.82 507.67 885.16 510 885.16 510 887.49 512.33 887.49 1236.7 887.48 1236.68 885.16 512.36 885.15 512.38 882.85 510.02 882.82 510.01 880.48 507.69 880.49 507.7 878.14 505.37 878.15 505.32 822.1 503 822.1"/><polygon class="cls-13" points="1250.64 768.35 1250.64 887.51 1248.31 887.51 1248.31 889.85 1245.94 889.85 1245.97 892.18 1243.64 892.18 1243.64 894.51 1241.31 894.51 505.26 894.51 505.28 892.18 1241.28 892.18 1241.26 889.87 1243.62 889.84 1243.63 887.5 1245.95 887.51 1245.94 885.17 1248.27 885.17 1248.32 836.13 1250.64 836.13 1250.64 768.35"/><polygon class="cls-23" points="505.32 840.71 505.32 784.66 505.32 782.33 507.68 782.33 507.66 779.99 509.99 779.99 509.99 777.66 512.32 777.66 1236.69 777.66 1236.66 779.99 512.35 780 512.37 782.3 510.01 782.33 510 784.67 507.68 784.66 507.69 787 507.65 840.71 505.32 840.71"/><polygon class="cls-11" points="495.95 840.75 495.95 780.03 498.29 780.03 498.29 777.69 500.65 777.69 500.63 775.35 502.95 775.35 502.95 773.03 505.29 773 505.29 770.69 505.29 770.69 1241.34 770.69 1241.31 777.69 507.65 777.7 507.64 780.04 505.31 780.02 505.33 782.37 503 782.36 502.95 840.75 495.95 840.75"/><polygon class="cls-11" points="1250.57 837.22 1250.57 780.03 1248.23 780.03 1248.23 777.69 1245.87 777.69 1245.89 775.35 1243.63 775.35 1243.62 773.01 1241.23 773 1241.23 770.69 1241.23 770.69 506.35 770.69 506.37 777.69 1238.87 777.7 1238.88 780.04 1241.2 780.02 1241.19 782.37 1243.52 782.36 1243.57 837.22 1250.57 837.22"/><polygon class="cls-14" points="1243.61 826.75 1243.61 782.38 1241.28 782.38 1241.28 780.04 1238.91 780.04 1238.94 777.71 1236.61 777.71 1236.61 775.38 1234.28 775.38 509.91 775.38 509.93 777.71 1234.25 777.71 1234.23 780.02 1236.59 780.05 1236.6 782.39 1238.92 782.38 1238.91 784.72 1241.24 784.72 1241.29 826.74 1243.61 826.75"/><polygon class="cls-13" points="495.91 840.75 495.91 775.36 498.24 775.36 498.25 773.02 500.61 773.02 500.58 770.68 502.91 770.68 502.91 768.35 505.24 768.35 1241.3 768.36 1241.27 770.68 505.27 770.69 505.29 772.99 502.94 773.02 502.92 775.36 500.6 775.35 500.61 777.7 498.29 777.69 498.24 840.75 495.91 840.75"/><polygon class="cls-14" points="503 840.76 503 782.38 505.33 782.38 505.33 780.04 507.7 780.04 507.67 777.71 510 777.71 510 775.38 512.33 775.38 1236.7 775.38 1236.68 777.71 512.36 777.71 512.38 780.02 510.02 780.05 510.01 782.39 507.69 782.38 507.7 784.72 505.37 784.72 505.32 840.76 503 840.76"/><polygon class="cls-23" points="505.32 840.71 505.32 784.66 505.32 782.33 507.68 782.33 507.66 779.99 509.99 779.99 509.99 777.66 512.32 777.66 1236.69 777.66 1236.66 779.99 512.35 780 512.37 782.3 510.01 782.33 510 784.67 507.68 784.66 507.69 787 507.65 840.71 505.32 840.71"/><polygon class="cls-23" points="1241.31 837.2 1241.32 784.86 1241.32 782.52 1238.95 782.52 1238.98 780.18 1236.65 780.18 1236.65 777.86 1234.32 777.86 500.6 777.86 500.63 780.18 1234.29 780.19 1234.27 782.49 1236.62 782.52 1236.64 784.87 1238.96 784.85 1238.95 787.2 1238.99 837.2 1241.31 837.2"/><polygon class="cls-11" points="495.95 840.75 495.95 780.03 498.29 780.03 498.29 777.69 500.65 777.69 500.63 775.35 502.95 775.35 502.95 773.03 505.29 773 505.29 770.69 505.29 770.69 1241.34 770.69 1241.31 777.69 507.65 777.7 507.64 780.04 505.31 780.02 505.33 782.37 503 782.36 502.95 840.75 495.95 840.75"/><polygon class="cls-11" points="1247.96 838.39 1248.23 777.69 1245.87 777.69 1245.89 775.35 1243.63 775.35 1243.62 773.01 1241.23 773 1241.23 770.69 1241.23 770.69 506.35 770.69 506.37 777.69 1238.87 777.7 1238.88 780.04 1241.2 780.02 1241.19 782.37 1243.52 782.36 1243.57 838.38 1247.96 838.39"/><polygon class="cls-14" points="1243.61 837.26 1243.61 782.38 1241.28 782.38 1241.28 780.04 1238.91 780.04 1238.94 777.71 1236.61 777.71 1236.61 775.38 1234.28 775.38 509.91 775.38 509.93 777.71 1234.25 777.71 1234.23 780.02 1236.59 780.05 1236.6 782.39 1238.92 782.38 1238.91 784.72 1241.24 784.72 1241.29 837.26 1243.61 837.26"/><polygon class="cls-13" points="495.91 840.75 495.91 775.36 498.24 775.36 498.25 773.02 500.61 773.02 500.58 770.68 502.91 770.68 502.91 768.35 505.24 768.35 1241.3 768.36 1241.27 770.68 505.27 770.69 505.29 772.99 502.94 773.02 502.92 775.36 500.6 775.35 500.61 777.7 498.29 777.69 498.24 840.75 495.91 840.75"/><polygon class="cls-14" points="503 840.76 503 782.38 505.33 782.38 505.33 780.04 507.7 780.04 507.67 777.71 510 777.71 510 775.38 512.33 775.38 1236.7 775.38 1236.68 777.71 512.36 777.71 512.38 780.02 510.02 780.05 510.01 782.39 507.69 782.38 507.7 784.72 505.37 784.72 505.32 840.76 503 840.76"/><polygon class="cls-13" points="1250.64 894.51 1250.64 775.36 1248.31 775.36 1248.31 773.02 1245.94 773.02 1245.97 770.68 1243.64 770.68 1243.64 768.35 1241.31 768.35 505.26 768.36 505.28 770.68 1241.28 770.69 1241.26 772.99 1243.62 773.02 1243.63 775.36 1245.95 775.35 1245.94 777.7 1248.27 777.69 1248.32 837.24 1250.64 837.24 1250.64 894.51"/></g></g></g></svg>